<svg width="184" height="177" viewBox="0 0 184 177" fill="none" xmlns="http://www.w3.org/2000/svg">
<g clip-path="url(#clip0_1156_1078)">
<path d="M4.84367 128.418C3.40257 128.418 2.23168 129.599 2.23168 131.05C2.23168 132.501 3.40257 133.682 4.84367 133.682C6.28476 133.682 7.45565 132.501 7.45565 131.05C7.45565 129.599 6.28476 128.418 4.84367 128.418Z" fill="#FF5722"/>
<path d="M49.5377 133.682C50.9803 133.682 52.1497 132.504 52.1497 131.05C52.1497 129.596 50.9803 128.418 49.5377 128.418C48.0951 128.418 46.9257 129.596 46.9257 131.05C46.9257 132.504 48.0951 133.682 49.5377 133.682Z" fill="#FF5722"/>
<path d="M27.1907 128.418C25.7497 128.418 24.5788 129.599 24.5788 131.05C24.5788 132.501 25.7497 133.682 27.1907 133.682C28.6318 133.682 29.8027 132.501 29.8027 131.05C29.8027 129.599 28.6318 128.418 27.1907 128.418Z" fill="#FF5722"/>
<path d="M26.8203 107.023C25.3793 107.023 24.2084 108.204 24.2084 109.655C24.2084 111.106 25.3793 112.287 26.8203 112.287C28.2614 112.287 29.4323 111.106 29.4323 109.655C29.4323 108.204 28.2614 107.023 26.8203 107.023Z" fill="#FF5722"/>
<path d="M4.47339 107.023C3.03229 107.023 1.8614 108.204 1.8614 109.655C1.8614 111.106 3.03229 112.287 4.47339 112.287C5.91449 112.287 7.08538 111.106 7.08538 109.655C7.08538 108.204 5.91449 107.023 4.47339 107.023Z" fill="#FF5722"/>
<path d="M71.5144 107.023C70.0733 107.023 68.9024 108.204 68.9024 109.655C68.9024 111.106 70.0733 112.287 71.5144 112.287C72.9555 112.287 74.1264 111.106 74.1264 109.655C74.1264 108.204 72.9555 107.023 71.5144 107.023Z" fill="#FF5722"/>
<path d="M49.1674 107.023C47.7263 107.023 46.5554 108.204 46.5554 109.655C46.5554 111.106 47.7263 112.287 49.1674 112.287C50.6085 112.287 51.7794 111.106 51.7794 109.655C51.7794 108.204 50.6085 107.023 49.1674 107.023Z" fill="#FF5722"/>
<path d="M4.84367 171.232C3.40257 171.232 2.23168 172.413 2.23168 173.864C2.23168 175.315 3.40257 176.496 4.84367 176.496C6.28476 176.496 7.45565 175.315 7.45565 173.864C7.45565 172.413 6.28476 171.232 4.84367 171.232Z" fill="#FF5722"/>
<path d="M26.8203 149.825C25.3793 149.825 24.2084 151.006 24.2084 152.457C24.2084 153.908 25.3793 155.089 26.8203 155.089C28.2614 155.089 29.4323 153.908 29.4323 152.457C29.4323 151.006 28.2614 149.825 26.8203 149.825Z" fill="#FF5722"/>
<path d="M4.47339 149.825C3.03229 149.825 1.8614 151.006 1.8614 152.457C1.8614 153.908 3.03229 155.089 4.47339 155.089C5.91449 155.089 7.08538 153.908 7.08538 152.457C7.08538 151.006 5.91449 149.825 4.47339 149.825Z" fill="#FF5722"/>
<path d="M93.4912 85.6159C92.0501 85.6159 90.8792 86.7968 90.8792 88.2479C90.8792 89.699 92.0501 90.8799 93.4912 90.8799C94.9323 90.8799 96.1032 89.699 96.1032 88.2479C96.1032 86.7968 94.9323 85.6159 93.4912 85.6159Z" fill="#FF5722"/>
<path d="M48.7972 85.6159C47.3561 85.6159 46.1852 86.7968 46.1852 88.2479C46.1852 89.699 47.3561 90.8799 48.7972 90.8799C50.2383 90.8799 51.4091 89.699 51.4091 88.2479C51.4091 86.7968 50.2383 85.6159 48.7972 85.6159Z" fill="#FF5722"/>
<path d="M71.1441 90.8799C72.5867 90.8799 73.7561 89.7015 73.7561 88.2479C73.7561 86.7943 72.5867 85.6159 71.1441 85.6159C69.7015 85.6159 68.5321 86.7943 68.5321 88.2479C68.5321 89.7015 69.7015 90.8799 71.1441 90.8799Z" fill="#FF5722"/>
<path d="M26.4402 85.6159C24.9991 85.6159 23.8282 86.7968 23.8282 88.2479C23.8282 89.699 24.9991 90.8799 26.4402 90.8799C27.8813 90.8799 29.0522 89.699 29.0522 88.2479C29.0522 86.7968 27.8913 85.6159 26.4402 85.6159Z" fill="#FF5722"/>
<path d="M4.0931 85.6159C2.652 85.6159 1.48111 86.7968 1.48111 88.2479C1.48111 89.699 2.652 90.8799 4.0931 90.8799C5.53419 90.8799 6.70508 89.699 6.70508 88.2479C6.70508 86.7968 5.53419 85.6159 4.0931 85.6159Z" fill="#FF5722"/>
<path d="M93.1109 64.209C91.6698 64.209 90.4989 65.3899 90.4989 66.841C90.4989 68.2921 91.6698 69.473 93.1109 69.473C94.552 69.473 95.7229 68.2921 95.7229 66.841C95.7229 65.3899 94.552 64.209 93.1109 64.209Z" fill="#FF5722"/>
<path d="M70.7638 64.209C69.3227 64.209 68.1518 65.3899 68.1518 66.841C68.1518 68.2921 69.3227 69.473 70.7638 69.473C72.2049 69.473 73.3758 68.2921 73.3758 66.841C73.3758 65.3899 72.2049 64.209 70.7638 64.209Z" fill="#FF5722"/>
<path d="M48.4169 64.209C46.9758 64.209 45.8049 65.3899 45.8049 66.841C45.8049 68.2921 46.9758 69.473 48.4169 69.473C49.858 69.473 51.0289 68.2921 51.0289 66.841C51.0289 65.3899 49.858 64.209 48.4169 64.209Z" fill="#FF5722"/>
<path d="M115.468 64.209C114.027 64.209 112.856 65.3899 112.856 66.841C112.856 68.2921 114.027 69.473 115.468 69.473C116.909 69.473 118.08 68.2921 118.08 66.841C118.08 65.3899 116.909 64.209 115.468 64.209Z" fill="#FF5722"/>
<path d="M3.72282 64.209C2.28172 64.209 1.11083 65.3899 1.11083 66.841C1.11083 68.2921 2.28172 69.473 3.72282 69.473C5.16392 69.473 6.33481 68.2921 6.33481 66.841C6.33481 65.3899 5.16392 64.209 3.72282 64.209Z" fill="#FF5722"/>
<path d="M26.0698 64.209C24.6287 64.209 23.4578 65.3899 23.4578 66.841C23.4578 68.2921 24.6287 69.473 26.0698 69.473C27.5109 69.473 28.6818 68.2921 28.6818 66.841C28.6818 65.3899 27.5109 64.209 26.0698 64.209Z" fill="#FF5722"/>
<path d="M3.35254 42.8021C1.91144 42.8021 0.740554 43.983 0.740554 45.4341C0.740554 46.8852 1.91144 48.0661 3.35254 48.0661C4.79364 48.0661 5.96453 46.8852 5.96453 45.4341C5.96453 43.983 4.79364 42.8021 3.35254 42.8021Z" fill="#FF5722"/>
<path d="M92.7406 48.0661C94.1832 48.0661 95.3526 46.8877 95.3526 45.4341C95.3526 43.9805 94.1832 42.8021 92.7406 42.8021C91.2981 42.8021 90.1286 43.9805 90.1286 45.4341C90.1286 46.8877 91.2981 48.0661 92.7406 48.0661Z" fill="#FF5722"/>
<path d="M137.435 48.0661C138.877 48.0661 140.047 46.8877 140.047 45.4341C140.047 43.9805 138.877 42.8021 137.435 42.8021C135.992 42.8021 134.823 43.9805 134.823 45.4341C134.823 46.8877 135.992 48.0661 137.435 48.0661Z" fill="#FF5722"/>
<path d="M70.3935 42.8021C68.9524 42.8021 67.7816 43.983 67.7816 45.4341C67.7816 46.8852 68.9524 48.0661 70.3935 48.0661C71.8346 48.0661 73.0055 46.8852 73.0055 45.4341C73.0055 43.983 71.8346 42.8021 70.3935 42.8021Z" fill="#FF5722"/>
<path d="M48.0466 42.8021C46.6055 42.8021 45.4346 43.983 45.4346 45.4341C45.4346 46.8852 46.6055 48.0661 48.0466 48.0661C49.4877 48.0661 50.6586 46.8852 50.6586 45.4341C50.6586 43.983 49.4877 42.8021 48.0466 42.8021Z" fill="#FF5722"/>
<path d="M25.6995 42.8021C24.2584 42.8021 23.0875 43.983 23.0875 45.4341C23.0875 46.8852 24.2584 48.0661 25.6995 48.0661C27.1406 48.0661 28.3115 46.8852 28.3115 45.4341C28.3115 43.983 27.1406 42.8021 25.6995 42.8021Z" fill="#FF5722"/>
<path d="M115.088 42.8021C113.646 42.8021 112.476 43.983 112.476 45.4341C112.476 46.8852 113.646 48.0661 115.088 48.0661C116.529 48.0661 117.7 46.8852 117.7 45.4341C117.7 43.983 116.529 42.8021 115.088 42.8021Z" fill="#FF5722"/>
<path d="M2.98226 26.6592C4.42483 26.6592 5.59425 25.4808 5.59425 24.0272C5.59425 22.5736 4.42483 21.3952 2.98226 21.3952C1.5397 21.3952 0.370277 22.5736 0.370277 24.0272C0.370277 25.4808 1.5397 26.6592 2.98226 26.6592Z" fill="#FF5722"/>
<path d="M114.717 21.4069C113.276 21.4069 112.105 22.5878 112.105 24.0389C112.105 25.49 113.276 26.6709 114.717 26.6709C116.158 26.6709 117.329 25.49 117.329 24.0389C117.329 22.5878 116.158 21.4069 114.717 21.4069Z" fill="#FF5722"/>
<path d="M25.3292 21.4069C23.8881 21.4069 22.7172 22.5878 22.7172 24.0389C22.7172 25.49 23.8881 26.6709 25.3292 26.6709C26.7703 26.6709 27.9412 25.49 27.9412 24.0389C27.9412 22.5878 26.7703 21.4069 25.3292 21.4069Z" fill="#FF5722"/>
<path d="M70.0233 21.4069C68.5822 21.4069 67.4113 22.5878 67.4113 24.0389C67.4113 25.49 68.5822 26.6709 70.0233 26.6709C71.4644 26.6709 72.6353 25.49 72.6353 24.0389C72.6353 22.5878 71.4644 21.4069 70.0233 21.4069Z" fill="#FF5722"/>
<path d="M47.6763 21.4069C46.2352 21.4069 45.0643 22.5878 45.0643 24.0389C45.0643 25.49 46.2352 26.6709 47.6763 26.6709C49.1174 26.6709 50.2883 25.49 50.2883 24.0389C50.2883 22.5878 49.1174 21.4069 47.6763 21.4069Z" fill="#FF5722"/>
<path d="M92.3702 21.4069C90.9291 21.4069 89.7582 22.5878 89.7582 24.0389C89.7582 25.49 90.9291 26.6709 92.3702 26.6709C93.8113 26.6709 94.9822 25.49 94.9822 24.0389C94.9822 22.5878 93.8113 21.4069 92.3702 21.4069Z" fill="#FF5722"/>
<path d="M159.411 21.4069C157.97 21.4069 156.799 22.5878 156.799 24.0389C156.799 25.49 157.97 26.6709 159.411 26.6709C160.852 26.6709 162.023 25.49 162.023 24.0389C162.023 22.5878 160.862 21.4069 159.411 21.4069Z" fill="#FF5722"/>
<path d="M137.064 21.4069C135.623 21.4069 134.452 22.5878 134.452 24.0389C134.452 25.49 135.623 26.6709 137.064 26.6709C138.505 26.6709 139.676 25.49 139.676 24.0389C139.676 22.5878 138.515 21.4069 137.064 21.4069Z" fill="#FF5722"/>
<path d="M24.9589 5.25228C26.4 5.25228 27.5709 4.07138 27.5709 2.62028C27.5709 1.16917 26.4 -0.0117277 24.9589 -0.0117277C23.5179 -0.0117277 22.347 1.16917 22.347 2.62028C22.347 4.07138 23.5179 5.25228 24.9589 5.25228Z" fill="#FF5722"/>
<path d="M2.61199 5.254C4.05308 5.254 5.22397 4.0731 5.22397 2.622C5.22397 1.17089 4.04308 0 2.61199 0C1.1809 0 0 1.1809 0 2.632C0 4.08311 1.17089 5.26401 2.61199 5.26401V5.254Z" fill="#FF5722"/>
<path d="M159.041 5.26401C160.484 5.26401 161.653 4.08562 161.653 2.632C161.653 1.17839 160.484 0 159.041 0C157.599 0 156.429 1.17839 156.429 2.632C156.429 4.08562 157.599 5.26401 159.041 5.26401Z" fill="#FF5722"/>
<path d="M92 5.25228C93.4411 5.25228 94.6119 4.07138 94.6119 2.62028C94.6119 1.16917 93.4411 -0.0117277 92 -0.0117277C90.5589 -0.0117277 89.388 1.16917 89.388 2.62028C89.388 4.07138 90.5589 5.25228 92 5.25228Z" fill="#FF5722"/>
<path d="M114.347 5.25228C115.788 5.25228 116.959 4.07138 116.959 2.62028C116.959 1.16917 115.788 -0.0117277 114.347 -0.0117277C112.906 -0.0117277 111.735 1.16917 111.735 2.62028C111.735 4.07138 112.906 5.25228 114.347 5.25228Z" fill="#FF5722"/>
<path d="M136.694 5.25228C138.135 5.25228 139.306 4.07138 139.306 2.62028C139.306 1.16917 138.135 -0.0117277 136.694 -0.0117277C135.253 -0.0117277 134.082 1.16917 134.082 2.62028C134.082 4.07138 135.253 5.25228 136.694 5.25228Z" fill="#FF5722"/>
<path d="M47.306 5.25228C48.7471 5.25228 49.918 4.07138 49.918 2.62028C49.918 1.16917 48.7471 -0.0117277 47.306 -0.0117277C45.8649 -0.0117277 44.694 1.16917 44.694 2.62028C44.694 4.07138 45.8649 5.25228 47.306 5.25228Z" fill="#FF5722"/>
<path d="M181.388 5.25228C182.829 5.25228 184 4.07138 184 2.62028C184 1.16917 182.839 -0.0117277 181.388 -0.0117277C179.937 -0.0117277 178.776 1.16917 178.776 2.62028C178.776 4.07138 179.947 5.25228 181.388 5.25228Z" fill="#FF5722"/>
<path d="M69.653 5.25228C71.0941 5.25228 72.265 4.07138 72.265 2.62028C72.265 1.16917 71.0941 -0.0117277 69.653 -0.0117277C68.2119 -0.0117277 67.041 1.16917 67.041 2.62028C67.041 4.07138 68.2119 5.25228 69.653 5.25228Z" fill="#FF5722"/>
</g>
<defs>
<clipPath id="clip0_1156_1078">
<rect width="183.86" height="176.35" fill="white" transform="scale(1.00076)"/>
</clipPath>
</defs>
</svg>
